<?xml version="1.0" encoding="utf-8"?>
<!-- Generator: Adobe Illustrator 26.0.3, SVG Export Plug-In . SVG Version: 6.00 Build 0)  -->
<svg version="1.1" id="Layer_1" xmlns="http://www.w3.org/2000/svg" xmlns:xlink="http://www.w3.org/1999/xlink" x="0px" y="0px"
	 viewBox="0 0 680 512" style="enable-background:new 0 0 680 512;" xml:space="preserve">
<style type="text/css">
	.st0{fill:#9EFCFF;}
	.st1{fill:#00677F;}
</style>
<polygon class="st0" points="468.5,24.2 300.3,78.7 122.9,492.5 554.9,492.5 424.2,149.2 492.4,42.7 "/>
<path class="st1" d="M624.8,469.3c-6.8-1.3-10.3,1.2-19.2,2.8c-7.8,1.3-19.2,1.8-34.1-2.8C530.7,368.2,490,267,449.3,165.8
	c-2.2-5.5-2.1-11.7,0.2-17.2c0,0,55.4-81.2,55.8-82.1c7.8-15.6,6.2-34-4.3-48C490.6,4.5,473.5-2.3,454.8,1l-66,16.4
	C323,29,268.9,72.9,244,134.8L108.5,469.3c-22.8,6.9-35.6,3.3-43.1-1.3c-9.9-6-11.6-14.4-21.5-16.4c-10.9-2.2-24.3,4.8-28,13.9
	c-5.2,12.8,6.7,34.9,34.3,46.5h574.4c12.3-1.3,21.3-11.1,21.3-21.3C646.2,478.2,633.1,470.9,624.8,469.3z M283.6,150.8
	c19.4-48.2,61.5-82.3,114-91.7l66-16.4c0.5-0.1,2-0.4,3.2,1.3c0.8,1,0.8,2,0.6,2.7c0,0-55.2,80.9-55.6,81.8
	c-8.3,16.6-9.1,36-2.2,53.2l115.7,287.6H154.6L283.6,150.8L283.6,150.8z M446.7,383c0.1,6.5-3.8,12.5-9.8,15l-28.1,11.9L397.5,438
	c-2.4,6.1-8.3,10.1-14.9,10.1c-6.5,0-12.4-4-14.9-10.1L356.6,410l-27.9-11.2c-6.1-2.4-10.1-8.3-10.1-14.9c0-6.5,4-12.4,10.1-14.9
	l27.9-11.2l11.2-27.9c2.4-6.1,8.3-10.1,14.9-10.1c6.5,0,12.4,4,14.9,10.1l11.1,27.8l27.7,10.5C442.5,370.6,446.6,376.5,446.7,383
	L446.7,383z M317,290.3l-9.3-23.3l-23.3-9.3c-5.1-2-8.4-6.9-8.4-12.4s3.3-10.4,8.4-12.4l23.3-9.3l9.3-23.3c2-5.1,6.9-8.4,12.4-8.4
	s10.4,3.3,12.4,8.4l9.2,23.1l23.1,8.7c5.1,1.9,8.5,6.8,8.6,12.2c0.1,5.5-3.1,10.4-8.1,12.5l-23.4,9.9l-9.4,23.4
	c-2,5.1-6.9,8.4-12.4,8.4S318.9,295.4,317,290.3L317,290.3z"/>
</svg>
