<?xml version="1.0" encoding="utf-8"?>
<!-- Generator: Adobe Illustrator 26.0.3, SVG Export Plug-In . SVG Version: 6.00 Build 0)  -->
<svg version="1.1" id="Layer_1" xmlns="http://www.w3.org/2000/svg" xmlns:xlink="http://www.w3.org/1999/xlink" x="0px" y="0px"
	 viewBox="0 0 512 512" style="enable-background:new 0 0 512 512;" xml:space="preserve">
<style type="text/css">
	.st0{fill:#9EFCFF;}
	.st1{fill:#006666;}
	.st2{fill:#1E5651;}
</style>
<polygon class="st0" points="161.2,160.8 219,155.8 492.2,438.8 442.2,497.8 139.2,199.8 "/>
<polygon class="st1" points="233,300 291,242 492.2,433 441,493 "/>
<path class="st2" d="M148,240.4l253.2,253.2c25.1,23.4,64,23.4,89.2,0c26.4-24.6,27.8-66,3.2-92.4L240.5,148
	c-25.9-24.7-66.6-24.7-92.5,0c-12.3,12.2-19.2,28.8-19.2,46.2C128.8,211.5,135.7,228.2,148,240.4z M265.6,297.8l32.1-32.1
	l165.7,165.8c8.8,8.8,8.8,23.2,0,32c-9,8.5-23,8.5-32,0L265.6,297.8z M178.1,210.1c-0.8-0.7-1.5-1.4-2.1-2.1
	c-8.2-9.4-7.3-23.8,2.1-32c9.4-8.2,23.8-7.3,32,2.1l57.4,57.3l-32,32.1L178.1,210.1L178.1,210.1z M409.1,61.7
	c8.4,2.4,15,9,17.4,17.4c3.9,13.5-3.9,27.6-17.4,31.4l-33.1,9.4l-9.4,33.1c-2.4,8.4-9,15-17.4,17.4c-13.5,3.9-27.6-3.9-31.4-17.4
	l-9.4-33.1l-33.1-9.4c-8.4-2.4-15-9-17.4-17.4c-3.9-13.5,3.9-27.6,17.4-31.4l33.1-9.4l9.4-33.1c2.4-8.4,9-15,17.4-17.4
	c13.5-3.9,27.6,3.9,31.4,17.4l9.4,33.1L409.1,61.7L409.1,61.7z M19.3,366.6c-8.4-2.4-15-9-17.4-17.4c-3.9-13.5,3.9-27.6,17.4-31.4
	l33.1-9.4l9.4-33.1c2.4-8.4,9-15,17.4-17.4c13.5-3.9,27.6,3.9,31.4,17.4l9.4,33.1l33.1,9.4c8.4,2.4,15,9,17.4,17.4
	c3.9,13.5-3.9,27.6-17.4,31.4L120,376l-9.4,33.1c-2.4,8.4-9,15-17.4,17.4c-13.5,3.9-27.6-3.9-31.4-17.4L52.4,376L19.3,366.6
	L19.3,366.6z M134.1,54.1c7.3,2.1,13,7.8,15.1,15.1c3.5,11.8-3.3,24.1-15.1,27.6l-29,8.3L96.8,134c-2.1,7.3-7.8,13-15.1,15.1
	c-11.8,3.5-24.1-3.3-27.6-15.1l-8.3-29L17,96.8C9.7,94.7,4,89,1.9,81.7C-1.5,69.9,5.2,57.5,17,54.1l28.9-8.3l8.3-28.9
	c2.1-7.3,7.8-13,15.1-15.1c11.8-3.5,24.1,3.3,27.6,15.1l8.3,29L134.1,54.1L134.1,54.1z"/>
</svg>
