<?xml version="1.0" encoding="utf-8"?>
<!-- Generator: Adobe Illustrator 26.0.3, SVG Export Plug-In . SVG Version: 6.00 Build 0)  -->
<svg version="1.1" id="Layer_1" xmlns="http://www.w3.org/2000/svg" xmlns:xlink="http://www.w3.org/1999/xlink" x="0px" y="0px"
	 viewBox="0 0 512 512" style="enable-background:new 0 0 512 512;" xml:space="preserve">
<style type="text/css">
	.st0{fill:#9EFCFF;}
	.st1{fill:#006666;stroke:#FFFFFF;stroke-miterlimit:10;}
	.st2{fill:#1E5651;}
	.st3{fill:none;stroke:#FF5500;stroke-width:70;stroke-miterlimit:10;}
</style>
<polygon class="st0" points="162,160 219.8,155 493,438 443,497 140,199 "/>
<polygon class="st1" points="243,297 296,236 499,443 450,497 "/>
<path class="st2" d="M148.8,239.6L402,492.8c25.1,23.4,64,23.4,89.2,0c26.4-24.6,27.8-66,3.2-92.4L241.3,147.2
	c-25.9-24.7-66.6-24.7-92.5,0c-12.3,12.2-19.2,28.8-19.2,46.2C129.6,210.7,136.5,227.4,148.8,239.6z M266.4,297l32.1-32.1
	l165.7,165.8c8.8,8.8,8.8,23.2,0,32c-9,8.5-23,8.5-32,0L266.4,297z M178.9,209.3c-0.8-0.7-1.5-1.4-2.1-2.1c-8.2-9.4-7.3-23.8,2.1-32
	c9.4-8.2,23.8-7.3,32,2.1l57.4,57.3l-32,32.1L178.9,209.3L178.9,209.3z"/>
<g>
	<circle class="st3" cx="256" cy="256" r="182"/>
	<line class="st3" x1="384.3" y1="126.9" x2="130.3" y2="380.8"/>
</g>
</svg>
