<?xml version="1.0" encoding="utf-8"?>
<!-- Generator: Adobe Illustrator 26.0.3, SVG Export Plug-In . SVG Version: 6.00 Build 0)  -->
<svg version="1.1" id="Layer_1" xmlns="http://www.w3.org/2000/svg" xmlns:xlink="http://www.w3.org/1999/xlink" x="0px" y="0px"
	 viewBox="0 0 40 40" style="enable-background:new 0 0 40 40;" xml:space="preserve">
<style type="text/css">
	.st0{fill:#9EFCFF;}
	.st1{fill:#006666;stroke:#FFFFFF;stroke-miterlimit:10;}
	.st2{fill:#1E5651;}
	.st3{fill:none;stroke:#FF5500;stroke-width:7;stroke-miterlimit:10;}
</style>
<polygon class="st0" points="12.7,12.6 17.3,12.2 38.6,34.4 34.7,39 11,15.7 "/>
<polygon class="st1" points="19.1,23.3 23.2,18.6 39.1,34.8 35.3,39 "/>
<path class="st2" d="M11.7,18.9l19.8,19.8c2,1.8,5,1.8,7,0c2.1-1.9,2.2-5.2,0.3-7.2L18.9,11.6c-2-1.9-5.2-1.9-7.2,0
	c-1,1-1.5,2.3-1.5,3.6C10.2,16.6,10.7,17.9,11.7,18.9z M20.9,23.3l2.5-2.5l13,13c0.7,0.7,0.7,1.8,0,2.5c-0.7,0.7-1.8,0.7-2.5,0
	L20.9,23.3z M14.1,16.5c-0.1-0.1-0.1-0.1-0.2-0.2c-0.6-0.7-0.6-1.9,0.2-2.5c0.7-0.6,1.9-0.6,2.5,0.2l4.5,4.5L18.5,21L14.1,16.5
	L14.1,16.5z"/>
<g>
	<circle class="st3" cx="20.1" cy="20.1" r="14.2"/>
	<line class="st3" x1="30.1" y1="10" x2="10.3" y2="29.9"/>
</g>
</svg>
