<?xml version="1.0" encoding="utf-8"?>
<!-- Generator: Adobe Illustrator 26.0.3, SVG Export Plug-In . SVG Version: 6.00 Build 0)  -->
<svg version="1.1" id="Layer_1" xmlns="http://www.w3.org/2000/svg" xmlns:xlink="http://www.w3.org/1999/xlink" x="0px" y="0px"
	 viewBox="0 0 40 40" style="enable-background:new 0 0 40 40;" xml:space="preserve">
<style type="text/css">
	.st0{fill:#9EFCFF;}
	.st1{fill:#006666;}
	.st2{fill:#1E5651;}
</style>
<polygon class="st0" points="12.6,12.5 17.1,12.1 38.6,34.3 34.6,39 10.9,15.6 "/>
<polygon class="st1" points="18.2,23.4 22.8,18.9 38.6,33.9 34.5,38.6 "/>
<path class="st2" d="M11.6,18.8l19.9,19.9c2,1.8,5,1.8,7,0c2.1-1.9,2.2-5.2,0.3-7.3L18.8,11.5c-2-1.9-5.2-1.9-7.3,0
	c-1,1-1.5,2.3-1.5,3.6C10,16.5,10.6,17.8,11.6,18.8z M20.8,23.3l2.5-2.5l13,13c0.7,0.7,0.7,1.8,0,2.5c-0.7,0.7-1.8,0.7-2.5,0
	L20.8,23.3z M13.9,16.4c-0.1-0.1-0.1-0.1-0.2-0.2c-0.6-0.7-0.6-1.9,0.2-2.5c0.7-0.6,1.9-0.6,2.5,0.2l4.5,4.5l-2.5,2.5L13.9,16.4
	L13.9,16.4z M32,4.7c0.7,0.2,1.2,0.7,1.4,1.4c0.3,1.1-0.3,2.2-1.4,2.5l-2.6,0.7l-0.7,2.6c-0.2,0.7-0.7,1.2-1.4,1.4
	c-1.1,0.3-2.2-0.3-2.5-1.4l-0.7-2.6l-2.6-0.7c-0.7-0.2-1.2-0.7-1.4-1.4c-0.3-1.1,0.3-2.2,1.4-2.5L24.1,4l0.7-2.6
	c0.2-0.7,0.7-1.2,1.4-1.4c1.1-0.3,2.2,0.3,2.5,1.4L29.4,4L32,4.7L32,4.7z M1.5,28.7c-0.7-0.2-1.2-0.7-1.4-1.4
	c-0.3-1.1,0.3-2.2,1.4-2.5L4,24.1l0.7-2.6c0.2-0.7,0.7-1.2,1.4-1.4c1.1-0.3,2.2,0.3,2.5,1.4l0.7,2.6l2.6,0.7
	c0.7,0.2,1.2,0.7,1.4,1.4c0.3,1.1-0.3,2.2-1.4,2.5l-2.6,0.7L8.6,32c-0.2,0.7-0.7,1.2-1.4,1.4c-1.1,0.3-2.2-0.3-2.5-1.4L4,29.4
	L1.5,28.7L1.5,28.7z M10.5,4.1c0.6,0.2,1,0.6,1.2,1.2c0.3,0.9-0.3,1.9-1.2,2.2L8.2,8.1l-0.7,2.3c-0.2,0.6-0.6,1-1.2,1.2
	c-0.9,0.3-1.9-0.3-2.2-1.2L3.5,8.1L1.3,7.5c-0.6-0.2-1-0.6-1.2-1.2c-0.3-0.9,0.3-1.9,1.2-2.2l2.3-0.7l0.7-2.3c0.2-0.6,0.6-1,1.2-1.2
	c0.9-0.3,1.9,0.3,2.2,1.2l0.7,2.3L10.5,4.1L10.5,4.1z"/>
</svg>
