<?xml version="1.0" encoding="utf-8"?>
<!-- Generator: Adobe Illustrator 26.0.3, SVG Export Plug-In . SVG Version: 6.00 Build 0)  -->
<svg version="1.1" id="Layer_1" xmlns="http://www.w3.org/2000/svg" xmlns:xlink="http://www.w3.org/1999/xlink" x="0px" y="0px"
	 viewBox="0 0 21.4 30.6" style="enable-background:new 0 0 21.4 30.6;" xml:space="preserve">
<path d="M10.7,29.4c-2.7,0-5.2-1.1-7-3.1c-1.8-1.9-2.8-4.4-2.8-6.8c0-3.5,1.9-6.8,5.1-8.7c0.1-0.1,0.2-0.2,0.2-0.3V8.4
	c0-0.4,0-0.8,0-1.3H4.6c-0.7,0-1.2-0.6-1.2-1.2l0,0c0-0.7,0.6-1.2,1.2-1.2h12.1c0.7,0,1.2,0.6,1.2,1.2l0,0c0,0.7-0.6,1.2-1.2,1.2
	h-1.4v3.4c0,0.1,0.1,0.2,0.2,0.3c3.2,1.9,5.1,5.2,5.1,8.7c0,2.5-1,5-2.8,6.8C15.8,28.3,13.4,29.4,10.7,29.4z M8.6,7.1
	c0,0.5,0,0.9,0,1.3v2.1c0,1-0.5,1.9-1.4,2.4c-2.4,1.4-3.9,3.9-3.9,6.5c0,3.6,3,7.4,7.4,7.4s7.4-3.8,7.4-7.4l0,0
	c0-2.6-1.5-5.1-3.9-6.5c-0.9-0.5-1.4-1.4-1.4-2.4V7.1H8.6z M14.5,4.8H6.9V2.1c0-0.5,0.4-0.9,0.9-0.9h5.8c0.5,0,0.9,0.4,0.9,0.9
	L14.5,4.8L14.5,4.8z M14.5,4.8H6.9V2.1c0-0.5,0.4-0.9,0.9-0.9h5.8c0.5,0,0.9,0.4,0.9,0.9L14.5,4.8L14.5,4.8z M2.1,19.6
	c1.8-1.3,3.3-1.6,4.5-1.6c3.4,0.1,4.4,3,7.8,3.1c1.8,0.1,3.7-0.7,4.9-1.5L19,21.4c0,0-1.2,3.3-2.5,4.3c-1.4,1-5.2,3.9-9.8,1.4
	S2.1,19.6,2.1,19.6z"/>
</svg>
