<?xml version="1.0" encoding="utf-8"?>
<!-- Generator: Adobe Illustrator 26.0.3, SVG Export Plug-In . SVG Version: 6.00 Build 0)  -->
<svg version="1.1" id="Layer_1" xmlns="http://www.w3.org/2000/svg" xmlns:xlink="http://www.w3.org/1999/xlink" x="0px" y="0px"
	 viewBox="0 0 60 60" style="enable-background:new 0 0 60 60;" xml:space="preserve">
<g>
	<path d="M36.7,23.7c-0.1-0.1-0.3-0.3-0.3-0.4v-4.8h2c0.8,0,1.7-0.7,1.7-1.7c0-0.8-0.7-1.7-1.7-1.7h-17c-0.8,0-1.7,0.7-1.7,1.7
		c0,0.8,0.7,1.7,1.7,1.7h2.3c0,0.7,0,1.3,0,1.8v3c0,0.1-0.1,0.3-0.3,0.4c-4.5,2.7-7.2,7.3-7.2,12.3c0,3.4,1.4,6.9,3.9,9.6
		c2.5,2.8,6.1,4.4,9.9,4.4s7.2-1.5,10-4.4c2.5-2.5,3.9-6.1,3.9-9.6C43.9,31,41.2,26.3,36.7,23.7z M30,46.2
		c-6.2,0-10.4-5.4-10.4-10.4c0-3.7,2.1-7.2,5.5-9.2c1.3-0.7,2-2,2-3.4v-3c0-0.6,0-1.1,0-1.8h5.9v4.8c0,1.4,0.7,2.7,2,3.4
		c3.4,2,5.5,5.5,5.5,9.2C40.4,40.8,36.2,46.2,30,46.2z"/>
</g>
<path d="M17.9,36.1c2.5-1.8,4.6-2.3,6.3-2.3c4.8,0.1,6.2,4.2,11,4.4c2.5,0.1,5.2-1,6.9-2.1l-0.4,2.5c0,0-1.7,4.6-3.5,6.1
	c-2,1.4-7.3,5.5-13.8,2C17.9,43.1,17.9,36.1,17.9,36.1z"/>
<path d="M34.5,17.9h-8.9c-0.5,0-0.9-0.4-0.9-0.9v-6c0-0.5,0.4-0.9,0.9-0.9h8.9c0.5,0,0.9,0.4,0.9,0.9v6
	C35.3,17.5,34.9,17.9,34.5,17.9z"/>
</svg>
